<svg width="62" height="64" viewBox="0 0 62 64" fill="none" xmlns="http://www.w3.org/2000/svg">
<path fill-rule="evenodd" clip-rule="evenodd" d="M61.9999 32.7273C61.9999 30.4739 61.811 28.3006 61.4551 26.2207H31.6274V38.5449H48.7115C47.9778 42.5623 45.7595 45.9804 42.3943 48.2694L52.5904 56.2737C58.5601 50.7005 61.9999 42.4649 61.9999 32.7273Z" fill="#4285F4"/>
<path fill-rule="evenodd" clip-rule="evenodd" d="M31.63 64.0002C40.1655 64.0002 47.3521 61.1647 52.5929 56.2758L42.3971 48.2715C39.5591 50.2047 35.9042 51.3337 31.63 51.3337C23.3803 51.3337 16.378 45.7071 13.8741 38.125L3.37061 46.3693C8.57617 56.8225 19.2728 64.0002 31.63 64.0002Z" fill="#34A853"/>
<path fill-rule="evenodd" clip-rule="evenodd" d="M13.8727 38.124C13.2314 36.1907 12.8798 34.1284 12.8798 31.9996C12.8798 29.8708 13.2314 27.8085 13.8727 25.8752L3.36934 17.6309C1.21683 21.9508 0 26.8308 0 31.9996C0 37.1684 1.21683 42.0488 3.36934 46.3683L13.8727 38.124Z" fill="#FABB05"/>
<path fill-rule="evenodd" clip-rule="evenodd" d="M31.63 12.6666C36.2909 12.6666 40.4685 14.2886 43.7631 17.4665V17.471L52.7905 8.33768C47.3083 3.17329 40.1609 0 31.63 0C19.2728 0 8.57617 7.17771 3.37061 17.6309L13.8741 25.8752C16.378 18.2931 23.3803 12.6666 31.63 12.6666Z" fill="#E94235"/>
</svg>
